<?xml version="1.0" encoding="utf-8"?>
<!-- Generator: Adobe Illustrator 21.1.0, SVG Export Plug-In . SVG Version: 6.00 Build 0)  -->
<svg version="1.1" id="Capa_1" xmlns="http://www.w3.org/2000/svg" xmlns:xlink="http://www.w3.org/1999/xlink" x="0px" y="0px"
	 viewBox="0 0 24 24" style="enable-background:new 0 0 24 24;" xml:space="preserve">
<style type="text/css">
	.st0{fill:#FFFFFF;}
</style>
<path class="st0" d="M12,14.8c1.9,0,3.5-1.4,3.7-3.3c0.1-1.2,0.2-2.3,0.2-3.1c0-0.8,0-1.9-0.2-3.1C15.5,3.4,13.9,2,12,2
	c-0.9,0-1.8,0.3-2.5,0.9C8.9,3.5,8.4,4.3,8.3,5.2C8.2,6.4,8.1,7.5,8.1,8.3s0,1.9,0.2,3.1C8.5,13.3,10.1,14.8,12,14.8z"/>
<path class="st0" d="M19.2,8c-0.4,0-0.8,0.3-0.8,0.8c0,0.8-0.1,1.9-0.2,3.1c-0.3,3.1-3,5.5-6.3,5.5c-3.3,0-5.8-2.4-6.2-5.5
	c-0.1-1.2-0.2-2.3-0.2-3.1C5.5,8.4,5.2,8,4.7,8S4,8.4,4,8.8c0,0.9,0.1,2,0.2,3.2c0.3,3.6,3.3,6.5,7,6.8v2.4c0,0.4,0.3,0.8,0.8,0.8
	s0.8-0.3,0.8-0.8v-2.4c3.7-0.3,6.7-3.2,7-6.8c0.1-1.2,0.2-2.4,0.2-3.2C20,8.4,19.6,8,19.2,8z"/>
</svg>
